ffmpeg started on 2016-12-08 at 22:12:31
Report written to "Output/x264/results/ffmpeg/crowd_run_2160p50veryslow10000k.log"
Command line:
Tools/ffmpeg/ffmpeg -benchmark -y -i Input/y4m/crowd_run_2160p50.y4m -c:v libx264 -preset veryslow -b:v 10000k -an Output/x264/encoded/crowd_run_2160p50veryslow10000k.mkv
ffmpeg version N-82227-gdb23fde Copyright (c) 2000-2016 the FFmpeg developers
  built with gcc 5.4.0 (Ubuntu 5.4.0-6ubuntu1~16.04.2) 20160609
  configuration: --prefix=/home/jaroslav/ffmpeg_build --pkg-config-flags=--static --extra-cflags=-I/home/jaroslav/ffmpeg_build/include --extra-ldflags=-L/home/jaroslav/ffmpeg_build/lib --bindir=/home/jaroslav/bin --enable-gpl --enable-libass --enable-libfdk-aac --enable-libfreetype --enable-libmp3lame --enable-libopus --enable-libtheora --enable-libvorbis --enable-libvpx --enable-libx264 --enable-libx265 --enable-nvenc --enable-libmfx --enable-libxvid --enable-libgsm --enable-libopencore-amrnb --enable-version3 --enable-nonfree
  libavutil      55. 35.100 / 55. 35.100
  libavcodec     57. 66.101 / 57. 66.101
  libavformat    57. 57.100 / 57. 57.100
  libavdevice    57.  2.100 / 57.  2.100
  libavfilter     6. 66.100 /  6. 66.100
  libswscale      4.  3.100 /  4.  3.100
  libswresample   2.  4.100 /  2.  4.100
  libpostproc    54.  2.100 / 54.  2.100
Input #0, yuv4mpegpipe, from 'Input/y4m/crowd_run_2160p50.y4m':
  Duration: 00:00:10.00, start: 0.000000, bitrate: 4976642 kb/s
    Stream #0:0: Video: rawvideo (I420 / 0x30323449), yuv420p(progressive), 3840x2160, SAR 1:1 DAR 16:9, 50 fps, 50 tbr, 50 tbn, 50 tbc
[libx264 @ 0x42c51c0] using SAR=1/1
[libx264 @ 0x42c51c0] DPB size (16 frames, 518400 mbs) > level limit (5 frames, 184320 mbs)
[libx264 @ 0x42c51c0] using cpu capabilities: MMX2 SSE2Fast SSSE3 SSE4.2 AVX FMA3 AVX2 LZCNT BMI2
[libx264 @ 0x42c51c0] profile High, level 5.2
[libx264 @ 0x42c51c0] 264 - core 148 - H.264/MPEG-4 AVC codec - Copyleft 2003-2016 - http://www.videolan.org/x264.html - options: cabac=1 ref=16 deblock=1:0:0 analyse=0x3:0x133 me=umh subme=10 psy=1 psy_rd=1.00:0.00 mixed_ref=1 me_range=24 chroma_me=1 trellis=2 8x8dct=1 cqm=0 deadzone=21,11 fast_pskip=1 chroma_qp_offset=-2 threads=6 lookahead_threads=1 sliced_threads=0 nr=0 decimate=1 interlaced=0 bluray_compat=0 constrained_intra=0 bframes=8 b_pyramid=2 b_adapt=2 b_bias=0 direct=3 weightb=1 open_gop=0 weightp=2 keyint=250 keyint_min=25 scenecut=40 intra_refresh=0 rc_lookahead=60 rc=abr mbtree=1 bitrate=10000 ratetol=1.0 qcomp=0.60 qpmin=0 qpmax=69 qpstep=4 ip_ratio=1.40 aq=1:1.00
Output #0, matroska, to 'Output/x264/encoded/crowd_run_2160p50veryslow10000k.mkv':
  Metadata:
    encoder         : Lavf57.57.100
    Stream #0:0: Video: h264 (libx264) (H264 / 0x34363248), yuv420p, 3840x2160 [SAR 1:1 DAR 16:9], q=-1--1, 10000 kb/s, 50 fps, 1k tbn, 50 tbc
    Metadata:
      encoder         : Lavc57.66.101 libx264
    Side data:
      cpb: bitrate max/min/avg: 0/0/10000000 buffer size: 0 vbv_delay: -1
Stream mapping:
  Stream #0:0 -> #0:0 (rawvideo (native) -> h264 (libx264))
Press [q] to stop, [?] for help
frame=   19 fps=0.0 q=0.0 size=       0kB time=00:00:00.00 bitrate=N/A speed=   0x    frame=   24 fps= 23 q=0.0 size=       0kB time=00:00:00.00 bitrate=N/A speed=   0x    frame=   31 fps= 20 q=0.0 size=       0kB time=00:00:00.00 bitrate=N/A speed=   0x    frame=   35 fps= 17 q=0.0 size=       0kB time=00:00:00.00 bitrate=N/A speed=   0x    frame=   46 fps= 18 q=0.0 size=       0kB time=00:00:00.00 bitrate=N/A speed=   0x    frame=   56 fps= 18 q=0.0 size=       0kB time=00:00:00.00 bitrate=N/A speed=   0x    frame=   66 fps= 18 q=0.0 size=       0kB time=00:00:00.00 bitrate=N/A speed=   0x    frame=   72 fps=6.5 q=0.0 size=       0kB time=00:00:00.00 bitrate=N/A speed=   0x    frame=   77 fps=5.9 q=42.0 size=       1kB time=-00:00:00.01 bitrate=N/A speed=N/A    frame=   78 fps=5.5 q=38.0 size=       1kB time=00:00:00.00 bitrate=5888.0kbits/s speed=7.03e-05x    frame=   80 fps=5.3 q=40.0 size=       1kB time=00:00:00.04 bitrate= 143.6kbits/s speed=0.00274x    frame=   84 fps=5.1 q=48.0 size=       1kB time=00:00:00.12 bitrate=  48.7kbits/s speed=0.0073x    frame=   88 fps=5.1 q=50.0 size=       1kB time=00:00:00.20 bitrate=  29.3kbits/s speed=0.0117x    frame=   90 fps=5.0 q=49.0 size=       1kB time=00:00:00.24 bitrate=  24.4kbits/s speed=0.0133x    frame=   91 fps=4.6 q=50.0 size=       1kB time=00:00:00.26 bitrate=  22.6kbits/s speed=0.0133x    frame=   93 fps=4.6 q=48.0 size=       1kB time=00:00:00.30 bitrate=  19.6kbits/s speed=0.0148x    frame=   95 fps=4.4 q=49.0 size=       1kB time=00:00:00.34 bitrate=  17.3kbits/s speed=0.016x    frame=   96 fps=4.4 q=48.0 size=       1kB time=00:00:00.36 bitrate=  16.3kbits/s speed=0.0165x    frame=   97 fps=4.3 q=48.0 size=       1kB time=00:00:00.38 bitrate=  15.5kbits/s speed=0.0169x    frame=   98 fps=4.1 q=48.0 size=       1kB time=00:00:00.40 bitrate=  14.7kbits/s speed=0.017x    frame=   99 fps=4.0 q=48.0 size=       1kB time=00:00:00.42 bitrate=  14.0kbits/s speed=0.0171x    frame=  101 fps=3.9 q=48.0 size=       1kB time=00:00:00.46 bitrate=  12.8kbits/s speed=0.0178x    frame=  103 fps=3.8 q=48.0 size=       1kB time=00:00:00.50 bitrate=  11.8kbits/s speed=0.0183x    frame=  104 fps=3.7 q=48.0 size=       1kB time=00:00:00.52 bitrate=  11.3kbits/s speed=0.0187x    frame=  105 fps=3.7 q=48.0 size=       1kB time=00:00:00.54 bitrate=  10.9kbits/s speed=0.0189x    frame=  106 fps=3.6 q=48.0 size=       1kB time=00:00:00.56 bitrate=  10.5kbits/s speed=0.0191x    frame=  107 fps=3.5 q=48.0 size=       1kB time=00:00:00.58 bitrate=  10.1kbits/s speed=0.0188x    frame=  108 fps=3.4 q=48.0 size=       1kB time=00:00:00.60 bitrate=   9.8kbits/s speed=0.0189x    frame=  110 fps=3.4 q=48.0 size=       1kB time=00:00:00.64 bitrate=   9.2kbits/s speed=0.0199x    frame=  111 fps=3.3 q=48.0 size=       1kB time=00:00:00.66 bitrate=   8.9kbits/s speed=0.0194x    frame=  112 fps=3.2 q=48.0 size=       1kB time=00:00:00.68 bitrate=   8.6kbits/s speed=0.0196x    frame=  114 fps=3.2 q=47.0 size=       1kB time=00:00:00.72 bitrate=   8.2kbits/s speed=0.0205x    frame=  115 fps=3.0 q=47.0 size=       1kB time=00:00:00.74 bitrate=   7.9kbits/s speed=0.0196x    frame=  116 fps=3.0 q=47.0 size=       1kB time=00:00:00.76 bitrate=   7.7kbits/s speed=0.0197x    frame=  117 fps=3.0 q=47.0 size=       1kB time=00:00:00.78 bitrate=   7.5kbits/s speed=0.02x    frame=  121 fps=2.9 q=47.0 size=       1kB time=00:00:00.86 bitrate=   6.8kbits/s speed=0.0203x    frame=  124 fps=2.8 q=47.0 size=       1kB time=00:00:00.92 bitrate=   6.4kbits/s speed=0.0208x    frame=  125 fps=2.8 q=47.0 size=       1kB time=00:00:00.94 bitrate=   6.3kbits/s speed=0.021x    frame=  126 fps=2.8 q=47.0 size=       1kB time=00:00:00.96 bitrate=   6.1kbits/s speed=0.0212x    frame=  127 fps=2.8 q=47.0 size=       1kB time=00:00:00.98 bitrate=   6.0kbits/s speed=0.0214x    frame=  128 fps=2.7 q=47.0 size=       1kB time=00:00:01.00 bitrate=   5.9kbits/s speed=0.0209x    frame=  129 fps=2.6 q=47.0 size=       1kB time=00:00:01.02 bitrate=   5.8kbits/s speed=0.0209x    frame=  130 fps=2.6 q=47.0 size=       1kB time=00:00:01.04 bitrate=   5.7kbits/s speed=0.021x    frame=  133 fps=2.6 q=47.0 size=       1kB time=00:00:01.10 bitrate=   5.3kbits/s speed=0.0215x    frame=  134 fps=2.5 q=47.0 size=       1kB time=00:00:01.12 bitrate=   5.3kbits/s speed=0.0212x    frame=  135 fps=2.5 q=46.0 size=       1kB time=00:00:01.14 bitrate=   5.2kbits/s speed=0.0214x    frame=  137 fps=2.5 q=47.0 size=       1kB time=00:00:01.18 bitrate=   5.0kbits/s speed=0.0216x    frame=  138 fps=2.5 q=46.0 size=       1kB time=00:00:01.20 bitrate=   4.9kbits/s speed=0.0216x    frame=  139 fps=2.5 q=46.0 size=       1kB time=00:00:01.22 bitrate=   4.8kbits/s speed=0.0217x    frame=  141 fps=2.4 q=46.0 size=       1kB time=00:00:01.26 bitrate=   4.7kbits/s speed=0.0216x    frame=  142 fps=2.4 q=46.0 size=       1kB time=00:00:01.28 bitrate=   4.6kbits/s speed=0.0216x    frame=  143 fps=2.4 q=46.0 size=       1kB time=00:00:01.30 bitrate=   4.5kbits/s speed=0.0217x    frame=  145 fps=2.4 q=46.0 size=       1kB time=00:00:01.34 bitrate=   4.4kbits/s speed=0.0218x    frame=  146 fps=2.3 q=46.0 size=       1kB time=00:00:01.36 bitrate=   4.3kbits/s speed=0.0218x    frame=  147 fps=2.3 q=46.0 size=       1kB time=00:00:01.38 bitrate=   4.3kbits/s speed=0.0219x    frame=  148 fps=2.3 q=46.0 size=       1kB time=00:00:01.40 bitrate=   4.2kbits/s speed=0.022x    frame=  149 fps=2.3 q=46.0 size=       1kB time=00:00:01.42 bitrate=   4.1kbits/s speed=0.0221x    frame=  150 fps=2.3 q=46.0 size=       1kB time=00:00:01.44 bitrate=   4.1kbits/s speed=0.0216x    frame=  151 fps=2.2 q=46.0 size=       1kB time=00:00:01.46 bitrate=   4.0kbits/s speed=0.0217x    frame=  153 fps=2.3 q=46.0 size=       1kB time=00:00:01.50 bitrate=   3.9kbits/s speed=0.0221x    frame=  156 fps=2.2 q=46.0 size=       1kB time=00:00:01.56 bitrate=   3.8kbits/s speed=0.0219x    frame=  157 fps=2.2 q=46.0 size=       1kB time=00:00:01.58 bitrate=   3.7kbits/s speed=0.022x    frame=  158 fps=2.2 q=46.0 size=       1kB time=00:00:01.60 bitrate=   3.7kbits/s speed=0.0221x    frame=  160 fps=2.2 q=46.0 size=       1kB time=00:00:01.64 bitrate=   3.6kbits/s speed=0.0222x    frame=  161 fps=2.2 q=46.0 size=       1kB time=00:00:01.66 bitrate=   3.5kbits/s speed=0.0222x    frame=  163 fps=2.2 q=46.0 size=       1kB time=00:00:01.70 bitrate=   3.5kbits/s speed=0.0226x    frame=  164 fps=2.1 q=46.0 size=       1kB time=00:00:01.72 bitrate=   3.4kbits/s speed=0.0221x    frame=  165 fps=2.1 q=46.0 size=       1kB time=00:00:01.74 bitrate=   3.4kbits/s speed=0.022x    frame=  166 fps=2.1 q=46.0 size=       1kB time=00:00:01.76 bitrate=   3.3kbits/s speed=0.0221x    frame=  168 fps=2.1 q=46.0 size=       1kB time=00:00:01.80 bitrate=   3.3kbits/s speed=0.0224x    frame=  169 fps=2.1 q=46.0 size=       1kB time=00:00:01.82 bitrate=   3.2kbits/s speed=0.0225x    frame=  170 fps=2.1 q=46.0 size=       1kB time=00:00:01.84 bitrate=   3.2kbits/s speed=0.0225x    frame=  171 fps=2.1 q=46.0 size=       1kB time=00:00:01.86 bitrate=   3.2kbits/s speed=0.0226x    frame=  172 fps=2.0 q=46.0 size=       1kB time=00:00:01.88 bitrate=   3.1kbits/s speed=0.0221x    frame=  173 fps=2.0 q=46.0 size=       1kB time=00:00:01.90 bitrate=   3.1kbits/s speed=0.0222x    frame=  174 fps=2.0 q=46.0 size=       1kB time=00:00:01.92 bitrate=   3.1kbits/s speed=0.0223x    frame=  178 fps=2.0 q=46.0 size=       1kB time=00:00:02.00 bitrate=   2.9kbits/s speed=0.0223x    frame=  179 fps=2.0 q=46.0 size=       1kB time=00:00:02.02 bitrate=   2.9kbits/s speed=0.0223x    frame=  182 fps=2.0 q=45.0 size=       1kB time=00:00:02.08 bitrate=   2.8kbits/s speed=0.0226x    frame=  183 fps=2.0 q=45.0 size=       1kB time=00:00:02.10 bitrate=   2.8kbits/s speed=0.0226x    frame=  184 fps=2.0 q=45.0 size=       1kB time=00:00:02.12 bitrate=   2.8kbits/s speed=0.0226x    frame=  186 fps=1.9 q=45.0 size=       1kB time=00:00:02.16 bitrate=   2.7kbits/s speed=0.0224x    frame=  187 fps=1.9 q=45.0 size=       1kB time=00:00:02.18 bitrate=   2.7kbits/s speed=0.0224x    frame=  188 fps=1.9 q=45.0 size=       1kB time=00:00:02.20 bitrate=   2.7kbits/s speed=0.0224x    frame=  191 fps=1.9 q=45.0 size=       1kB time=00:00:02.26 bitrate=   2.6kbits/s speed=0.0227x    frame=  192 fps=1.9 q=45.0 size=       1kB time=00:00:02.28 bitrate=   2.6kbits/s speed=0.0223x    frame=  193 fps=1.9 q=45.0 size=       1kB time=00:00:02.30 bitrate=   2.6kbits/s speed=0.0224x    frame=  196 fps=1.9 q=45.0 size=       1kB time=00:00:02.36 bitrate=   2.5kbits/s speed=0.0226x    frame=  197 fps=1.9 q=45.0 size=       1kB time=00:00:02.38 bitrate=   2.5kbits/s speed=0.0227x    frame=  198 fps=1.9 q=45.0 size=       1kB time=00:00:02.40 bitrate=   2.5kbits/s speed=0.0227x    frame=  199 fps=1.9 q=45.0 size=       1kB time=00:00:02.42 bitrate=   2.4kbits/s speed=0.0227x    frame=  201 fps=1.8 q=45.0 size=       1kB time=00:00:02.46 bitrate=   2.4kbits/s speed=0.0226x    frame=  202 fps=1.8 q=45.0 size=       1kB time=00:00:02.48 bitrate=   2.4kbits/s speed=0.0226x    frame=  204 fps=1.9 q=45.0 size=       1kB time=00:00:02.52 bitrate=   2.3kbits/s speed=0.0229x    frame=  205 fps=1.8 q=45.0 size=       1kB time=00:00:02.54 bitrate=   2.3kbits/s speed=0.0225x    frame=  206 fps=1.8 q=45.0 size=       1kB time=00:00:02.56 bitrate=   2.3kbits/s speed=0.0226x    frame=  207 fps=1.8 q=45.0 size=       1kB time=00:00:02.58 bitrate=   2.3kbits/s speed=0.0226x    frame=  210 fps=1.8 q=45.0 size=       1kB time=00:00:02.64 bitrate=   2.2kbits/s speed=0.0227x    frame=  211 fps=1.8 q=45.0 size=       1kB time=00:00:02.66 bitrate=   2.2kbits/s speed=0.0226x    frame=  214 fps=1.8 q=45.0 size=       1kB time=00:00:02.72 bitrate=   2.2kbits/s speed=0.0227x    frame=  215 fps=1.8 q=45.0 size=       1kB time=00:00:02.74 bitrate=   2.1kbits/s speed=0.0227x    frame=  216 fps=1.8 q=45.0 size=       1kB time=00:00:02.76 bitrate=   2.1kbits/s speed=0.0227x    frame=  218 fps=1.8 q=45.0 size=       1kB time=00:00:02.80 bitrate=   2.1kbits/s speed=0.0228x    frame=  219 fps=1.8 q=45.0 size=       1kB time=00:00:02.82 bitrate=   2.1kbits/s speed=0.0227x    frame=  220 fps=1.7 q=45.0 size=       1kB time=00:00:02.84 bitrate=   2.1kbits/s speed=0.0226x    frame=  221 fps=1.7 q=45.0 size=       1kB time=00:00:02.86 bitrate=   2.1kbits/s speed=0.0226x    frame=  224 fps=1.7 q=45.0 size=       1kB time=00:00:02.92 bitrate=   2.0kbits/s speed=0.0228x    frame=  225 fps=1.7 q=45.0 size=       1kB time=00:00:02.94 bitrate=   2.0kbits/s speed=0.0225x    frame=  226 fps=1.7 q=45.0 size=       1kB time=00:00:02.96 bitrate=   2.0kbits/s speed=0.0226x    frame=  229 fps=1.7 q=45.0 size=       1kB time=00:00:03.02 bitrate=   1.9kbits/s speed=0.0228x    frame=  230 fps=1.7 q=45.0 size=       1kB time=00:00:03.04 bitrate=   1.9kbits/s speed=0.0227x    frame=  231 fps=1.7 q=45.0 size=       1kB time=00:00:03.06 bitrate=   1.9kbits/s speed=0.0227x    frame=  232 fps=1.7 q=45.0 size=       1kB time=00:00:03.08 bitrate=   1.9kbits/s speed=0.0227x    frame=  234 fps=1.7 q=45.0 size=       1kB time=00:00:03.12 bitrate=   1.9kbits/s speed=0.0226x    frame=  236 fps=1.7 q=45.0 size=       1kB time=00:00:03.16 bitrate=   1.9kbits/s speed=0.0227x    frame=  239 fps=1.7 q=45.0 size=       1kB time=00:00:03.22 bitrate=   1.8kbits/s speed=0.0228x    frame=  240 fps=1.7 q=45.0 size=       1kB time=00:00:03.24 bitrate=   1.8kbits/s speed=0.0226x    frame=  241 fps=1.7 q=45.0 size=       1kB time=00:00:03.26 bitrate=   1.8kbits/s speed=0.0226x    frame=  245 fps=1.7 q=45.0 size=       1kB time=00:00:03.34 bitrate=   1.8kbits/s speed=0.0228x    frame=  246 fps=1.7 q=45.0 size=       1kB time=00:00:03.36 bitrate=   1.8kbits/s speed=0.0226x    frame=  247 fps=1.7 q=45.0 size=       1kB time=00:00:03.38 bitrate=   1.7kbits/s speed=0.0226x    frame=  250 fps=1.6 q=45.0 size=       1kB time=00:00:03.44 bitrate=   1.7kbits/s speed=0.0227x    frame=  251 fps=1.6 q=45.0 size=       1kB time=00:00:03.46 bitrate=   1.7kbits/s speed=0.0227x    frame=  252 fps=1.6 q=45.0 size=       1kB time=00:00:03.48 bitrate=   1.7kbits/s speed=0.0227x    frame=  253 fps=1.6 q=45.0 size=       1kB time=00:00:03.50 bitrate=   1.7kbits/s speed=0.0228x    frame=  254 fps=1.6 q=45.0 size=       1kB time=00:00:03.52 bitrate=   1.7kbits/s speed=0.0228x    frame=  256 fps=1.6 q=45.0 size=       1kB time=00:00:03.56 bitrate=   1.7kbits/s speed=0.0227x    frame=  257 fps=1.6 q=45.0 size=       1kB time=00:00:03.58 bitrate=   1.6kbits/s speed=0.0227x    frame=  259 fps=1.6 q=45.0 size=       1kB time=00:00:03.62 bitrate=   1.6kbits/s speed=0.0228x    frame=  260 fps=1.6 q=45.0 size=       1kB time=00:00:03.64 bitrate=   1.6kbits/s speed=0.0228x    frame=  261 fps=1.6 q=45.0 size=       1kB time=00:00:03.66 bitrate=   1.6kbits/s speed=0.0228x    frame=  262 fps=1.6 q=45.0 size=       1kB time=00:00:03.68 bitrate=   1.6kbits/s speed=0.0229x    frame=  263 fps=1.6 q=45.0 size=       1kB time=00:00:03.70 bitrate=   1.6kbits/s speed=0.0229x    frame=  264 fps=1.6 q=45.0 size=       1kB time=00:00:03.72 bitrate=   1.6kbits/s speed=0.0227x    frame=  265 fps=1.6 q=45.0 size=       1kB time=00:00:03.74 bitrate=   1.6kbits/s speed=0.0227x    frame=  266 fps=1.6 q=45.0 size=       1kB time=00:00:03.76 bitrate=   1.6kbits/s speed=0.0227x    frame=  268 fps=1.6 q=45.0 size=       1kB time=00:00:03.80 bitrate=   1.5kbits/s speed=0.0227x    frame=  269 fps=1.6 q=45.0 size=       1kB time=00:00:03.82 bitrate=   1.5kbits/s speed=0.0227x    frame=  270 fps=1.6 q=45.0 size=       1kB time=00:00:03.84 bitrate=   1.5kbits/s speed=0.0227x    frame=  272 fps=1.6 q=45.0 size=       1kB time=00:00:03.88 bitrate=   1.5kbits/s speed=0.0228x    frame=  273 fps=1.6 q=45.0 size=       1kB time=00:00:03.90 bitrate=   1.5kbits/s speed=0.0228x    frame=  274 fps=1.6 q=45.0 size=       1kB time=00:00:03.92 bitrate=   1.5kbits/s speed=0.0227x    frame=  275 fps=1.6 q=45.0 size=       1kB time=00:00:03.94 bitrate=   1.5kbits/s speed=0.0228x    frame=  277 fps=1.6 q=45.0 size=       1kB time=00:00:03.98 bitrate=   1.5kbits/s speed=0.0227x    frame=  278 fps=1.6 q=45.0 size=       1kB time=00:00:04.00 bitrate=   1.5kbits/s speed=0.0227x    frame=  279 fps=1.6 q=45.0 size=       1kB time=00:00:04.02 bitrate=   1.5kbits/s speed=0.0227x    frame=  282 fps=1.6 q=45.0 size=    5148kB time=00:00:04.08 bitrate=10333.3kbits/s speed=0.0228x    frame=  283 fps=1.6 q=45.0 size=    5148kB time=00:00:04.10 bitrate=10282.9kbits/s speed=0.0227x    frame=  285 fps=1.6 q=45.0 size=    5148kB time=00:00:04.14 bitrate=10183.6kbits/s speed=0.0228x    frame=  286 fps=1.6 q=45.0 size=    5148kB time=00:00:04.16 bitrate=10134.6kbits/s speed=0.0228x    frame=  287 fps=1.6 q=45.0 size=    5148kB time=00:00:04.18 bitrate=10086.1kbits/s speed=0.0228x    frame=  289 fps=1.6 q=45.0 size=    5148kB time=00:00:04.22 bitrate=9990.6kbits/s speed=0.0229x    frame=  290 fps=1.5 q=45.0 size=    5148kB time=00:00:04.24 bitrate=9943.4kbits/s speed=0.0226x    frame=  291 fps=1.5 q=45.0 size=    5148kB time=00:00:04.26 bitrate=9896.8kbits/s speed=0.0227x    frame=  293 fps=1.6 q=45.0 size=    5148kB time=00:00:04.30 bitrate=9804.7kbits/s speed=0.0228x    frame=  294 fps=1.5 q=45.0 size=    5148kB time=00:00:04.32 bitrate=9759.4kbits/s speed=0.0227x    frame=  295 fps=1.5 q=45.0 size=    5148kB time=00:00:04.34 bitrate=9714.4kbits/s speed=0.0227x    frame=  296 fps=1.5 q=45.0 size=    5148kB time=00:00:04.36 bitrate=9669.8kbits/s speed=0.0227x    frame=  298 fps=1.5 q=45.0 size=    5148kB time=00:00:04.40 bitrate=9581.9kbits/s speed=0.0227x    frame=  299 fps=1.5 q=45.0 size=    5148kB time=00:00:04.42 bitrate=9538.6kbits/s speed=0.0227x    frame=  300 fps=1.5 q=45.0 size=    5148kB time=00:00:04.44 bitrate=9495.6kbits/s speed=0.0227x    frame=  301 fps=1.5 q=45.0 size=    5148kB time=00:00:04.46 bitrate=9453.1kbits/s speed=0.0227x    frame=  303 fps=1.5 q=45.0 size=    5148kB time=00:00:04.50 bitrate=9369.1kbits/s speed=0.0228x    frame=  304 fps=1.5 q=45.0 size=    5148kB time=00:00:04.52 bitrate=9327.6kbits/s speed=0.0227x    frame=  305 fps=1.5 q=45.0 size=    5148kB time=00:00:04.54 bitrate=9286.5kbits/s speed=0.0228x    frame=  307 fps=1.5 q=45.0 size=    5148kB time=00:00:04.58 bitrate=9205.4kbits/s speed=0.0227x    frame=  308 fps=1.5 q=45.0 size=    5148kB time=00:00:04.60 bitrate=9165.4kbits/s speed=0.0227x    frame=  310 fps=1.5 q=45.0 size=    5148kB time=00:00:04.64 bitrate=9086.4kbits/s speed=0.0228x    frame=  311 fps=1.5 q=45.0 size=    5148kB time=00:00:04.66 bitrate=9047.4kbits/s speed=0.0227x    frame=  312 fps=1.5 q=45.0 size=    5148kB time=00:00:04.68 bitrate=9008.8kbits/s speed=0.0227x    frame=  313 fps=1.5 q=45.0 size=    5148kB time=00:00:04.70 bitrate=8970.5kbits/s speed=0.0227x    frame=  314 fps=1.5 q=45.0 size=    5148kB time=00:00:04.72 bitrate=8932.5kbits/s speed=0.0227x    frame=  315 fps=1.5 q=45.0 size=    5148kB time=00:00:04.74 bitrate=8894.8kbits/s speed=0.0227x    frame=  316 fps=1.5 q=45.0 size=    5148kB time=00:00:04.76 bitrate=8857.4kbits/s speed=0.0227x    frame=  319 fps=1.5 q=45.0 size=    5148kB time=00:00:04.82 bitrate=8747.2kbits/s speed=0.0226x    frame=  320 fps=1.5 q=45.0 size=    5148kB time=00:00:04.84 bitrate=8711.0kbits/s speed=0.0226x    frame=  321 fps=1.5 q=42.0 size=    5148kB time=00:00:04.86 bitrate=8675.2kbits/s speed=0.0227x    frame=  325 fps=1.5 q=45.0 size=    5148kB time=00:00:04.94 bitrate=8534.7kbits/s speed=0.0228x    frame=  331 fps=1.5 q=45.0 size=    6186kB time=00:00:05.06 bitrate=10012.8kbits/s speed=0.0233x    frame=  332 fps=1.5 q=45.0 size=    6186kB time=00:00:05.08 bitrate=9973.4kbits/s speed=0.0232x    frame=  334 fps=1.5 q=45.0 size=    6186kB time=00:00:05.12 bitrate=9895.5kbits/s speed=0.0233x    frame=  336 fps=1.5 q=45.0 size=    6186kB time=00:00:05.16 bitrate=9818.8kbits/s speed=0.0234x    frame=  338 fps=1.5 q=45.0 size=    6186kB time=00:00:05.20 bitrate=9743.3kbits/s speed=0.0236x    frame=  339 fps=1.5 q=45.0 size=    6186kB time=00:00:05.22 bitrate=9705.9kbits/s speed=0.0235x    frame=  341 fps=1.5 q=45.0 size=    6186kB time=00:00:05.26 bitrate=9632.1kbits/s speed=0.0236x    frame=  343 fps=1.5 q=45.0 size=    6186kB time=00:00:05.30 bitrate=9559.5kbits/s speed=0.0237x    frame=  345 fps=1.5 q=45.0 size=    6186kB time=00:00:05.34 bitrate=9487.9kbits/s speed=0.0236x    frame=  347 fps=1.5 q=45.0 size=    6186kB time=00:00:05.38 bitrate=9417.3kbits/s speed=0.0237x    frame=  349 fps=1.5 q=45.0 size=    6186kB time=00:00:05.42 bitrate=9347.8kbits/s speed=0.0237x    frame=  350 fps=1.5 q=45.0 size=    6186kB time=00:00:05.44 bitrate=9313.5kbits/s speed=0.0237x    frame=  352 fps=1.5 q=45.0 size=    6186kB time=00:00:05.48 bitrate=9245.5kbits/s speed=0.0238x    frame=  353 fps=1.5 q=45.0 size=    6186kB time=00:00:05.50 bitrate=9211.9kbits/s speed=0.0237x    frame=  354 fps=1.5 q=45.0 size=    6186kB time=00:00:05.52 bitrate=9178.5kbits/s speed=0.0237x    frame=  355 fps=1.5 q=45.0 size=    6186kB time=00:00:05.54 bitrate=9145.4kbits/s speed=0.0237x    frame=  357 fps=1.5 q=45.0 size=    6186kB time=00:00:05.58 bitrate=9079.9kbits/s speed=0.0237x    frame=  358 fps=1.5 q=45.0 size=    6186kB time=00:00:05.60 bitrate=9047.4kbits/s speed=0.0237x    frame=  359 fps=1.5 q=45.0 size=    6186kB time=00:00:05.62 bitrate=9015.2kbits/s speed=0.0237x    frame=  361 fps=1.5 q=45.0 size=    6186kB time=00:00:05.66 bitrate=8951.5kbits/s speed=0.0237x    frame=  362 fps=1.5 q=45.0 size=    6186kB time=00:00:05.68 bitrate=8920.0kbits/s speed=0.0237x    frame=  363 fps=1.5 q=45.0 size=    6186kB time=00:00:05.70 bitrate=8888.7kbits/s speed=0.0237x    frame=  365 fps=1.5 q=45.0 size=    6186kB time=00:00:05.74 bitrate=8826.8kbits/s speed=0.0237x    frame=  366 fps=1.5 q=45.0 size=    6186kB time=00:00:05.76 bitrate=8796.2kbits/s speed=0.0237x    frame=  367 fps=1.5 q=45.0 size=    6186kB time=00:00:05.78 bitrate=8765.7kbits/s speed=0.0237x    frame=  369 fps=1.5 q=45.0 size=    6186kB time=00:00:05.82 bitrate=8705.5kbits/s speed=0.0236x    frame=  370 fps=1.5 q=45.0 size=    6186kB time=00:00:05.84 bitrate=8675.7kbits/s speed=0.0236x    frame=  371 fps=1.5 q=45.0 size=    6186kB time=00:00:05.86 bitrate=8646.1kbits/s speed=0.0237x    frame=  373 fps=1.5 q=45.0 size=    6186kB time=00:00:05.90 bitrate=8587.5kbits/s speed=0.0236x    frame=  375 fps=1.5 q=45.0 size=    6186kB time=00:00:05.94 bitrate=8529.7kbits/s speed=0.0237x    frame=  377 fps=1.5 q=45.0 size=    6186kB time=00:00:05.98 bitrate=8472.6kbits/s speed=0.0237x    frame=  378 fps=1.5 q=45.0 size=    6186kB time=00:00:06.00 bitrate=8444.4kbits/s speed=0.0237x    frame=  379 fps=1.5 q=45.0 size=    6186kB time=00:00:06.02 bitrate=8416.3kbits/s speed=0.0236x    frame=  380 fps=1.5 q=45.0 size=    6186kB time=00:00:06.04 bitrate=8388.5kbits/s speed=0.0236x    frame=  382 fps=1.5 q=45.0 size=    6186kB time=00:00:06.08 bitrate=8333.3kbits/s speed=0.0237x    frame=  383 fps=1.5 q=45.0 size=    6186kB time=00:00:06.10 bitrate=8306.0kbits/s speed=0.0237x    frame=  384 fps=1.5 q=45.0 size=    6186kB time=00:00:06.12 bitrate=8278.8kbits/s speed=0.0237x    frame=  385 fps=1.5 q=45.0 size=    6186kB time=00:00:06.14 bitrate=8251.9kbits/s speed=0.0237x    frame=  386 fps=1.5 q=45.0 size=    6186kB time=00:00:06.16 bitrate=8225.1kbits/s speed=0.0236x    frame=  387 fps=1.5 q=45.0 size=    6186kB time=00:00:06.18 bitrate=8198.5kbits/s speed=0.0236x    frame=  389 fps=1.5 q=45.0 size=    6186kB time=00:00:06.22 bitrate=8145.7kbits/s speed=0.0237x    frame=  390 fps=1.5 q=45.0 size=    6186kB time=00:00:06.24 bitrate=8119.6kbits/s speed=0.0237x    frame=  391 fps=1.5 q=45.0 size=    6186kB time=00:00:06.26 bitrate=8093.7kbits/s speed=0.0237x    frame=  392 fps=1.5 q=45.0 size=    6186kB time=00:00:06.28 bitrate=8067.9kbits/s speed=0.0237x    frame=  394 fps=1.5 q=45.0 size=    6186kB time=00:00:06.32 bitrate=8016.9kbits/s speed=0.0236x    frame=  395 fps=1.5 q=45.0 size=    6186kB time=00:00:06.34 bitrate=7991.6kbits/s speed=0.0236x    frame=  396 fps=1.5 q=45.0 size=    6186kB time=00:00:06.36 bitrate=7966.5kbits/s speed=0.0236x    frame=  398 fps=1.5 q=45.0 size=    6186kB time=00:00:06.40 bitrate=7916.7kbits/s speed=0.0236x    frame=  399 fps=1.5 q=45.0 size=    6186kB time=00:00:06.42 bitrate=7892.0kbits/s speed=0.0236x    frame=  400 fps=1.5 q=45.0 size=    6186kB time=00:00:06.44 bitrate=7867.5kbits/s speed=0.0237x    frame=  401 fps=1.5 q=45.0 size=    6186kB time=00:00:06.46 bitrate=7843.2kbits/s speed=0.0236x    frame=  402 fps=1.5 q=45.0 size=    6186kB time=00:00:06.48 bitrate=7819.0kbits/s speed=0.0235x    frame=  403 fps=1.5 q=45.0 size=    6186kB time=00:00:06.50 bitrate=7794.9kbits/s speed=0.0235x    frame=  404 fps=1.5 q=45.0 size=    6186kB time=00:00:06.52 bitrate=7771.0kbits/s speed=0.0235x    frame=  407 fps=1.5 q=45.0 size=    6186kB time=00:00:06.58 bitrate=7700.1kbits/s speed=0.0237x    frame=  408 fps=1.5 q=45.0 size=    6186kB time=00:00:06.60 bitrate=7676.8kbits/s speed=0.0235x    frame=  411 fps=1.5 q=45.0 size=    6186kB time=00:00:06.66 bitrate=7607.7kbits/s speed=0.0236x    frame=  412 fps=1.5 q=45.0 size=    6186kB time=00:00:06.68 bitrate=7584.9kbits/s speed=0.0235x    frame=  414 fps=1.5 q=45.0 size=    6186kB time=00:00:06.72 bitrate=7539.8kbits/s speed=0.0236x    frame=  415 fps=1.4 q=45.0 size=    6186kB time=00:00:06.74 bitrate=7517.4kbits/s speed=0.0234x    frame=  416 fps=1.4 q=45.0 size=    6186kB time=00:00:06.76 bitrate=7495.1kbits/s speed=0.0235x    frame=  418 fps=1.4 q=45.0 size=    6186kB time=00:00:06.80 bitrate=7451.1kbits/s speed=0.0235x    frame=  420 fps=1.4 q=45.0 size=    6186kB time=00:00:06.84 bitrate=7407.5kbits/s speed=0.0236x    frame=  421 fps=1.4 q=45.0 size=    6186kB time=00:00:06.86 bitrate=7385.9kbits/s speed=0.0235x    frame=  423 fps=1.4 q=45.0 size=    6186kB time=00:00:06.90 bitrate=7343.1kbits/s speed=0.0235x    frame=  424 fps=1.4 q=45.0 size=    6186kB time=00:00:06.92 bitrate=7321.9kbits/s speed=0.0234x    frame=  425 fps=1.4 q=45.0 size=    6186kB time=00:00:06.94 bitrate=7300.8kbits/s speed=0.0234x    frame=  426 fps=1.4 q=45.0 size=    6186kB time=00:00:06.96 bitrate=7279.8kbits/s speed=0.0234x    frame=  428 fps=1.4 q=45.0 size=    6186kB time=00:00:07.00 bitrate=7238.2kbits/s speed=0.0233x    frame=  429 fps=1.4 q=45.0 size=    6186kB time=00:00:07.02 bitrate=7217.6kbits/s speed=0.0233x    frame=  430 fps=1.4 q=45.0 size=    6186kB time=00:00:07.04 bitrate=7197.1kbits/s speed=0.0233x    frame=  432 fps=1.4 q=45.0 size=    6186kB time=00:00:07.08 bitrate=7156.4kbits/s speed=0.0233x    frame=  433 fps=1.4 q=45.0 size=    6186kB time=00:00:07.10 bitrate=7136.3kbits/s speed=0.0233x    frame=  434 fps=1.4 q=45.0 size=    6186kB time=00:00:07.12 bitrate=7116.2kbits/s speed=0.0232x    frame=  436 fps=1.4 q=45.0 size=    6186kB time=00:00:07.16 bitrate=7076.5kbits/s speed=0.0233x    frame=  437 fps=1.4 q=45.0 size=    6186kB time=00:00:07.18 bitrate=7056.8kbits/s speed=0.0232x    frame=  438 fps=1.4 q=45.0 size=    6186kB time=00:00:07.20 bitrate=7037.2kbits/s speed=0.0232x    frame=  439 fps=1.4 q=45.0 size=    6186kB time=00:00:07.22 bitrate=7017.7kbits/s speed=0.0232x    frame=  441 fps=1.4 q=45.0 size=    6186kB time=00:00:07.26 bitrate=6979.0kbits/s speed=0.0232x    frame=  442 fps=1.4 q=45.0 size=    6186kB time=00:00:07.28 bitrate=6959.8kbits/s speed=0.0232x    frame=  443 fps=1.4 q=45.0 size=    6186kB time=00:00:07.30 bitrate=6940.8kbits/s speed=0.0232x    frame=  445 fps=1.4 q=45.0 size=    6186kB time=00:00:07.34 bitrate=6903.0kbits/s speed=0.0232x    frame=  446 fps=1.4 q=45.0 size=    6186kB time=00:00:07.36 bitrate=6884.2kbits/s speed=0.0232x    frame=  447 fps=1.4 q=45.0 size=    6186kB time=00:00:07.38 bitrate=6865.6kbits/s speed=0.0232x    frame=  449 fps=1.4 q=45.0 size=    6186kB time=00:00:07.42 bitrate=6828.5kbits/s speed=0.0232x    frame=  450 fps=1.4 q=45.0 size=    6186kB time=00:00:07.44 bitrate=6810.2kbits/s speed=0.0232x    frame=  451 fps=1.4 q=45.0 size=    6186kB time=00:00:07.46 bitrate=6791.9kbits/s speed=0.0232x    frame=  453 fps=1.4 q=45.0 size=    6186kB time=00:00:07.50 bitrate=6755.7kbits/s speed=0.0232x    frame=  454 fps=1.4 q=45.0 size=    6186kB time=00:00:07.52 bitrate=6737.8kbits/s speed=0.0232x    frame=  457 fps=1.4 q=45.0 size=    6186kB time=00:00:07.58 bitrate=6684.4kbits/s speed=0.0232x    frame=  458 fps=1.4 q=45.0 size=    6186kB time=00:00:07.60 bitrate=6666.8kbits/s speed=0.0232x    frame=  459 fps=1.4 q=45.0 size=    6186kB time=00:00:07.62 bitrate=6649.3kbits/s speed=0.0232x    frame=  461 fps=1.4 q=45.0 size=    6186kB time=00:00:07.66 bitrate=6614.6kbits/s speed=0.0232x    frame=  462 fps=1.4 q=45.0 size=    6186kB time=00:00:07.68 bitrate=6597.4kbits/s speed=0.0232x    frame=  464 fps=1.4 q=45.0 size=    6186kB time=00:00:07.72 bitrate=6563.2kbits/s speed=0.0233x    frame=  465 fps=1.4 q=45.0 size=    6186kB time=00:00:07.74 bitrate=6546.3kbits/s speed=0.0232x    frame=  466 fps=1.4 q=45.0 size=    6186kB time=00:00:07.76 bitrate=6529.4kbits/s speed=0.0232x    frame=  468 fps=1.4 q=45.0 size=    6186kB time=00:00:07.80 bitrate=6495.9kbits/s speed=0.0232x    frame=  469 fps=1.4 q=45.0 size=    6186kB time=00:00:07.82 bitrate=6479.3kbits/s speed=0.0232x    frame=  471 fps=1.4 q=45.0 size=    6186kB time=00:00:07.86 bitrate=6446.3kbits/s speed=0.0233x    frame=  472 fps=1.4 q=45.0 size=    6186kB time=00:00:07.88 bitrate=6430.0kbits/s speed=0.0232x    frame=  473 fps=1.4 q=45.0 size=    6186kB time=00:00:07.90 bitrate=6413.7kbits/s speed=0.0231x    frame=  474 fps=1.4 q=45.0 size=    6186kB time=00:00:07.92 bitrate=6397.5kbits/s speed=0.0232x    frame=  475 fps=1.4 q=45.0 size=    6186kB time=00:00:07.94 bitrate=6381.4kbits/s speed=0.0232x    frame=  478 fps=1.4 q=45.0 size=    6186kB time=00:00:08.00 bitrate=6333.5kbits/s speed=0.0232x    frame=  479 fps=1.4 q=45.0 size=    6186kB time=00:00:08.02 bitrate=6317.7kbits/s speed=0.0231x    frame=  480 fps=1.4 q=45.0 size=    6186kB time=00:00:08.04 bitrate=6302.0kbits/s speed=0.0231x    frame=  482 fps=1.4 q=45.0 size=    6186kB time=00:00:08.08 bitrate=6270.8kbits/s speed=0.0232x    frame=  483 fps=1.4 q=45.0 size=    6186kB time=00:00:08.10 bitrate=6255.4kbits/s speed=0.0232x    frame=  484 fps=1.4 q=45.0 size=    6186kB time=00:00:08.12 bitrate=6240.0kbits/s speed=0.0232x    frame=  485 fps=1.4 q=45.0 size=    6186kB time=00:00:08.14 bitrate=6224.6kbits/s speed=0.0232x    frame=  486 fps=1.4 q=45.0 size=    6186kB time=00:00:08.16 bitrate=6209.4kbits/s speed=0.0231x    frame=  487 fps=1.4 q=45.0 size=    6186kB time=00:00:08.18 bitrate=6194.2kbits/s speed=0.0232x    frame=  489 fps=1.4 q=45.0 size=    6186kB time=00:00:08.22 bitrate=6164.1kbits/s speed=0.0232x    frame=  490 fps=1.4 q=45.0 size=    6186kB time=00:00:08.24 bitrate=6149.1kbits/s speed=0.0232x    frame=  491 fps=1.4 q=45.0 size=    6186kB time=00:00:08.26 bitrate=6134.2kbits/s speed=0.0232x    frame=  492 fps=1.4 q=45.0 size=    6186kB time=00:00:08.28 bitrate=6119.4kbits/s speed=0.0232x    frame=  494 fps=1.4 q=45.0 size=    6186kB time=00:00:08.32 bitrate=6090.0kbits/s speed=0.0231x    frame=  495 fps=1.4 q=45.0 size=    6186kB time=00:00:08.34 bitrate=6075.4kbits/s speed=0.0231x    frame=  496 fps=1.4 q=45.0 size=    6186kB time=00:00:08.36 bitrate=6060.8kbits/s speed=0.0231x    frame=  498 fps=1.4 q=45.0 size=    6186kB time=00:00:08.40 bitrate=6032.0kbits/s speed=0.0232x    frame=  499 fps=1.4 q=45.0 size=    6186kB time=00:00:08.42 bitrate=6017.7kbits/s speed=0.0232x    frame=  500 fps=1.4 q=45.0 size=    6186kB time=00:00:08.44 bitrate=6003.4kbits/s speed=0.0232x    frame=  500 fps=1.4 q=45.0 size=    6186kB time=00:00:08.44 bitrate=6003.4kbits/s speed=0.0231x    frame=  500 fps=1.2 q=-1.0 Lsize=   12173kB time=00:00:09.94 bitrate=10031.3kbits/s speed=0.0232x    
video:12169kB audio:0kB subtitle:0kB other streams:0kB global headers:0kB muxing overhead: 0.036836%
bench: utime=1642.972s
bench: maxrss=3308760kB
[libx264 @ 0x42c51c0] frame I:2     Avg QP:36.15  size:356745
[libx264 @ 0x42c51c0] frame P:114   Avg QP:45.78  size: 50309
[libx264 @ 0x42c51c0] frame B:384   Avg QP:47.26  size: 15654
[libx264 @ 0x42c51c0] consecutive B-frames:  0.4%  0.0%  1.2% 60.0% 30.0%  8.4%  0.0%  0.0%  0.0%
[libx264 @ 0x42c51c0] mb I  I16..4: 19.8% 73.4%  6.8%
[libx264 @ 0x42c51c0] mb P  I16..4:  1.9%  4.2%  0.0%  P16..4: 37.6%  3.2%  5.6%  0.0%  0.0%    skip:47.5%
[libx264 @ 0x42c51c0] mb B  I16..4:  0.0%  0.1%  0.0%  B16..8: 40.1%  1.3%  0.1%  direct: 0.2%  skip:58.2%  L0:44.2% L1:55.4% BI: 0.4%
[libx264 @ 0x42c51c0] final ratefactor: 36.75
[libx264 @ 0x42c51c0] 8x8 transform intra:70.1% inter:88.3%
[libx264 @ 0x42c51c0] direct mvs  spatial:99.2% temporal:0.8%
[libx264 @ 0x42c51c0] coded y,uvDC,uvAC intra: 29.5% 44.5% 14.1% inter: 1.4% 3.3% 0.0%
[libx264 @ 0x42c51c0] i16 v,h,dc,p: 34% 22%  7% 37%
[libx264 @ 0x42c51c0] i8 v,h,dc,ddl,ddr,vr,hd,vl,hu:  8%  4%  8% 12% 15% 15% 14% 12% 11%
[libx264 @ 0x42c51c0] i4 v,h,dc,ddl,ddr,vr,hd,vl,hu:  6%  4%  1% 12% 16% 16% 16% 13% 15%
[libx264 @ 0x42c51c0] i8c dc,h,v,p: 52% 17% 16% 14%
[libx264 @ 0x42c51c0] Weighted P-Frames: Y:1.8% UV:0.9%
[libx264 @ 0x42c51c0] ref P L0: 55.2%  4.4% 13.9%  4.5%  3.9%  3.4%  3.4%  1.6%  1.5%  1.2%  1.2%  1.1%  1.2%  1.2%  1.4%  0.8%
[libx264 @ 0x42c51c0] ref B L0: 93.8%  3.0%  1.2%  0.4%  0.3%  0.3%  0.2%  0.1%  0.1%  0.1%  0.1%  0.1%  0.1%  0.1%  0.1%
[libx264 @ 0x42c51c0] ref B L1: 98.9%  1.1%
[libx264 @ 0x42c51c0] kb/s:9967.92
